<?xml version="1.0" standalone="no"?><!DOCTYPE svg PUBLIC "-//W3C//DTD SVG 1.1//EN" "http://www.w3.org/Graphics/SVG/1.1/DTD/svg11.dtd"><svg t="1552746842015" class="icon" style="" viewBox="0 0 1024 1024" version="1.1" xmlns="http://www.w3.org/2000/svg" p-id="1107" xmlns:xlink="http://www.w3.org/1999/xlink" width="36" height="36"><defs><style type="text/css"></style></defs><path d="M693.85501249 11.89871697H330.14498751C254.67515817 11.89871697 193.7537284 72.82014568 193.7537284 148.28997607v727.42004786c0 75.46983039 60.92142871 136.39125911 136.39125911 136.3912591h363.71002498c75.46983039 0 136.39125911-60.92142871 136.39125911-136.3912591V148.28997607c0-75.46983039-60.92142871-136.39125911-136.39125911-136.3912591z m-113.65938294 909.27506034h-136.3912591c-12.7298512 0-22.73187616-10.00202602-22.73187616-22.73187616s10.00202602-22.73187616 22.73187616-22.73187722h136.3912591c12.7298512 0 22.73187616 10.00202602 22.73187616 22.73187722s-10.00202602 22.73187616-22.73187616 22.73187616z m159.12313527-136.3912591H284.68123518V148.28997607h454.63752964v636.49254214z" p-id="1108" fill="#999999"></path></svg>